<svg width="238" height="100" viewBox="0 0 238 100" fill="none" xmlns="http://www.w3.org/2000/svg">
<rect width="236.667" height="100" transform="translate(0.916687)" fill="white"/>
<path d="M26.9407 57.8576C27.121 62.2586 29.5798 65.1717 33.8988 65.1717C36.3585 65.1717 38.758 63.9938 39.7173 61.6387H49.2544C47.3951 69.0764 40.7367 72.2995 33.7786 72.2995C23.6412 72.2995 16.7432 65.977 16.7432 55.1918C16.7432 45.3364 24.3608 38.2705 33.539 38.2705C44.6967 38.2705 50.2747 46.948 49.7946 57.8576H26.9407ZM39.5971 51.9688C39.4167 48.374 36.9579 45.3983 33.539 45.3983C29.9397 45.3983 27.5402 48.0632 26.9407 51.9688H39.5971Z" fill="#ED7004"/>
<path d="M52.4922 39.2003H62.39V43.6013H62.5102C64.3696 40.3164 68.5683 38.2705 72.2878 38.2705C82.6649 38.2705 83.5048 46.0808 83.5048 50.7291V71.3697H73.3072V55.8126C73.3072 51.4116 73.7873 46.9488 68.2085 46.9488C64.3696 46.9488 62.6897 50.2955 62.6897 53.8293V71.3705H52.4922V39.2003Z" fill="#ED7004"/>
<path d="M96.5794 57.8576C96.7597 62.2585 99.2185 65.1716 103.537 65.1716C105.997 65.1716 108.397 63.9937 109.356 61.6386H118.893C117.034 69.0763 110.375 72.3002 103.417 72.3002C93.2798 72.3002 86.3818 65.9778 86.3818 55.1926C86.3818 45.3372 93.9995 38.2712 103.178 38.2712C114.335 38.2712 119.913 46.9487 119.433 57.8584H96.5794V57.8576ZM109.237 51.9687C109.056 48.3739 106.597 45.3982 103.178 45.3982C99.5792 45.3982 97.1805 48.0631 96.5802 51.9687H109.237Z" fill="#ED7004"/>
<path d="M122.492 39.2002H132.389V44.8409H132.51C134.009 40.7499 137.488 38.5803 141.867 38.5803C142.647 38.5803 143.487 38.6421 144.267 38.8284V48.4357C142.947 48.064 141.747 47.8158 140.368 47.8158C135.329 47.8158 132.69 51.4106 132.69 55.4398V71.3695H122.492V39.2002H122.492Z" fill="#ED7004"/>
<path d="M145.775 26.304H166.175C173.687 26.1779 181.934 28.1979 181.934 37.6022C181.934 41.6414 179.612 44.9238 176.192 46.6907C180.834 48.0791 183.704 52.2453 183.704 57.3572C183.704 68.0873 176.069 71.3697 166.725 71.3697H145.775V26.304ZM157.135 44.0399H165.931C167.885 44.0399 170.572 42.9664 170.572 39.7475C170.572 36.4652 168.312 35.3925 165.931 35.3925H157.135V44.0399ZM157.135 61.9654H166.236C169.839 61.9654 172.344 60.6396 172.344 56.9161C172.344 52.9396 169.656 51.6146 166.236 51.6146H157.135V61.9654Z" fill="#53358E"/>
<path d="M197.752 34.5094H187.37V26.304H197.752V34.5094ZM187.37 38.6121H197.752V71.3704H187.37V38.6121Z" fill="#53358E"/>
<path d="M221.757 45.5544H215.343V60.4498C215.343 63.0379 216.809 63.6052 219.068 63.6052C219.923 63.6052 220.84 63.479 221.756 63.479V71.3687C219.862 71.4314 217.969 71.6845 216.075 71.6845C207.219 71.6845 204.959 69.0337 204.959 60.134V45.5544H199.706V38.6112H204.959V28.7024H215.342V38.6121H221.756V45.5544H221.757Z" fill="#53358E"/>
</svg>
